<?xml version="1.0" encoding="UTF-8" standalone="no"?>
<svg
   xmlns:dc="http://purl.org/dc/elements/1.1/"
   xmlns:cc="http://creativecommons.org/ns#"
   xmlns:rdf="http://www.w3.org/1999/02/22-rdf-syntax-ns#"
   xmlns:svg="http://www.w3.org/2000/svg"
   xmlns="http://www.w3.org/2000/svg"
   xmlns:sodipodi="http://sodipodi.sourceforge.net/DTD/sodipodi-0.dtd"
   xmlns:inkscape="http://www.inkscape.org/namespaces/inkscape"
   width="90"
   height="65"
   viewBox="0 0 90 65"
   version="1.1"
   id="svg6"
   sodipodi:docname="actions.svg"
   inkscape:version="0.92.2 (5c3e80d, 2017-08-06)">
  <metadata
     id="metadata12">
    <rdf:RDF>
      <cc:Work
         rdf:about="">
        <dc:format>image/svg+xml</dc:format>
        <dc:type
           rdf:resource="http://purl.org/dc/dcmitype/StillImage" />
        <dc:title></dc:title>
      </cc:Work>
    </rdf:RDF>
  </metadata>
  <defs
     id="defs10">
    <radialGradient
       id="path1535_1_"
       cx="287.27551"
       cy="-2950.4387"
       r="17.376499"
       gradientTransform="matrix(0.5242,0,0,-0.11049478,-127.81636,-295.39434)"
       gradientUnits="userSpaceOnUse">
      <stop
         offset="0"
         style="stop-color:#000000"
         id="stop5194" />
      <stop
         offset="1"
         style="stop-color:#000000;stop-opacity:0"
         id="stop5196" />
    </radialGradient>
    <radialGradient
       id="rect1539_1_"
       cx="52.1642"
       cy="1.0189"
       r="15.0952"
       gradientTransform="matrix(0.9508,0,0,-1.0004855,-19.065075,28.197299)"
       gradientUnits="userSpaceOnUse">
      <stop
         offset="0"
         style="stop-color:#F2F4F1"
         id="stop5201" />
      <stop
         offset="1"
         style="stop-color:#D3D7CF"
         id="stop5203" />
    </radialGradient>
    <linearGradient
       id="rect1539_2_"
       gradientUnits="userSpaceOnUse"
       x1="-254.4203"
       y1="385.84341"
       x2="-254.4203"
       y2="364.34341"
       gradientTransform="matrix(1,0,0,1.005412,5.3378247,12.629801)">
      <stop
         offset="0"
         style="stop-color:#EEEEEC"
         id="stop5206" />
      <stop
         offset="1"
         style="stop-color:#FFFFFF"
         id="stop5208" />
    </linearGradient>
    <linearGradient
       id="path1547_1_"
       gradientUnits="userSpaceOnUse"
       x1="301.922"
       y1="-298.24731"
       x2="303.06491"
       y2="-299.68979"
       gradientTransform="matrix(0.5242,0,0,-0.52985212,-113.93698,-144.6098)">
      <stop
         offset="0"
         style="stop-color:#FFFFFF;stop-opacity:0"
         id="stop5215" />
      <stop
         offset="0.5"
         style="stop-color:#FFFFFF"
         id="stop5217" />
      <stop
         offset="1"
         style="stop-color:#FFFFFF;stop-opacity:0"
         id="stop5219" />
    </linearGradient>
    <linearGradient
       id="path1549_1_"
       gradientUnits="userSpaceOnUse"
       x1="270.80869"
       y1="-299.65561"
       x2="271.75931"
       y2="-298.50659"
       gradientTransform="matrix(0.5242,0,0,-0.52985212,-125.56587,-144.57954)">
      <stop
         offset="0"
         style="stop-color:#FFFFFF;stop-opacity:0"
         id="stop5223" />
      <stop
         offset="0.5"
         style="stop-color:#FFFFFF"
         id="stop5225" />
      <stop
         offset="1"
         style="stop-color:#FFFFFF;stop-opacity:0"
         id="stop5227" />
    </linearGradient>
  </defs>
  <sodipodi:namedview
     pagecolor="#ffffff"
     bordercolor="#666666"
     borderopacity="1"
     objecttolerance="10"
     gridtolerance="10"
     guidetolerance="10"
     inkscape:pageopacity="0"
     inkscape:pageshadow="2"
     inkscape:window-width="1920"
     inkscape:window-height="1043"
     id="namedview8"
     showgrid="false"
     inkscape:pagecheckerboard="false"
     showborder="false"
     inkscape:zoom="4"
     inkscape:cx="20.207963"
     inkscape:cy="47.715651"
     inkscape:window-x="1920"
     inkscape:window-y="0"
     inkscape:window-maximized="1"
     inkscape:current-layer="svg6" />
  <rect
     style="opacity:1;fill:#ba4c63;fill-opacity:1;stroke:none;stroke-width:0.5;stroke-linejoin:round;stroke-miterlimit:4;stroke-dasharray:none;stroke-dashoffset:0;stroke-opacity:1"
     id="rect4519"
     width="90"
     height="65"
     x="0"
     y="0" />
  <circle
     style="opacity:1;fill:#45b39c;fill-opacity:1;stroke:none;stroke-width:0.53044713;stroke-linejoin:round;stroke-miterlimit:4;stroke-dasharray:none;stroke-dashoffset:0;stroke-opacity:1"
     id="path4515"
     cx="45"
     cy="32.5"
     r="26" />
  <path
     d="M 0,17 H 48 V 65 H 0 Z"
     id="path2"
     inkscape:connector-curvature="0"
     style="fill:none" />
  <rect
     style="opacity:1;fill:none;fill-opacity:0.20945943;stroke:none;stroke-width:0.23899999;stroke-linejoin:round;stroke-miterlimit:4;stroke-dasharray:none;stroke-dashoffset:0;stroke-opacity:1"
     id="rect6119"
     width="14.375"
     height="26.625"
     x="48"
     y="17" />
  <rect
     style="opacity:1;fill:none;fill-opacity:0.20945943;stroke:none;stroke-width:0.30179331;stroke-linejoin:round;stroke-miterlimit:4;stroke-dasharray:none;stroke-dashoffset:0;stroke-opacity:1"
     id="rect6121"
     width="17.993952"
     height="22.887045"
     x="47.582348"
     y="20.207548" />
  <g
     id="g6192"
     transform="translate(-4.1984479,-0.17677669)">
    <g
       transform="translate(0.08838835,0.17677669)"
       id="g6181">
      <g
         id="g6113"
         transform="matrix(0.14717374,0,0,0.14717374,30.153468,23.952223)">
        <path
           style="fill:#313131;fill-opacity:1;stroke:#313131;stroke-width:0.5;stroke-miterlimit:4;stroke-dasharray:none;stroke-opacity:1"
           id="path2-1"
           d="M 37,30 H 8 C 5.8,30 4,28.2 4,26 V 7 C 4,5.3 5.3,4 7,4 h 30 c 1.7,0 3,1.3 3,3 v 20 c 0,1.6 -1.3,3 -3,3 z"
           inkscape:connector-curvature="0" />
        <path
           style="fill:#313131;fill-opacity:1;stroke:#000000;stroke-width:0.5;stroke-miterlimit:4;stroke-dasharray:none;stroke-opacity:0.49019608"
           id="path4"
           d="m 56,30 h -8 c -2.2,0 -4,-1.8 -4,-4 V 8 c 0,-2.2 1.8,-4 4,-4 h 8 c 2.2,0 4,1.8 4,4 v 18 c 0,2.2 -1.8,4 -4,4 z"
           inkscape:connector-curvature="0" />
        <path
           style="fill:#313131;fill-opacity:1;stroke:#000000;stroke-width:0.5;stroke-miterlimit:4;stroke-dasharray:none;stroke-opacity:0.49019608"
           id="path6"
           d="M 56,60 H 28 c -2.2,0 -4,-1.8 -4,-4 V 38 c 0,-2.2 1.8,-4 4,-4 h 28 c 2.2,0 4,1.8 4,4 v 18 c 0,2.2 -1.8,4 -4,4 z"
           inkscape:connector-curvature="0" />
        <path
           style="fill:#313131;fill-opacity:1;stroke:#000000;stroke-width:0.5;stroke-miterlimit:4;stroke-dasharray:none;stroke-opacity:0.49019608"
           id="path8"
           d="M 16,60 H 8 C 5.8,60 4,58.2 4,56 V 38 c 0,-2.2 1.8,-4 4,-4 h 8 c 2.2,0 4,1.8 4,4 v 18 c 0,2.2 -1.8,4 -4,4 z"
           inkscape:connector-curvature="0" />
      </g>
      <path
         style="color:#000000;font-style:normal;font-variant:normal;font-weight:normal;font-stretch:normal;font-size:medium;line-height:normal;font-family:sans-serif;font-variant-ligatures:normal;font-variant-position:normal;font-variant-caps:normal;font-variant-numeric:normal;font-variant-alternates:normal;font-feature-settings:normal;text-indent:0;text-align:start;text-decoration:none;text-decoration-line:none;text-decoration-style:solid;text-decoration-color:#000000;letter-spacing:normal;word-spacing:normal;text-transform:none;writing-mode:lr-tb;direction:ltr;text-orientation:mixed;dominant-baseline:auto;baseline-shift:baseline;text-anchor:start;white-space:normal;shape-padding:0;clip-rule:nonzero;display:inline;overflow:visible;visibility:visible;opacity:1;isolation:auto;mix-blend-mode:normal;color-interpolation:sRGB;color-interpolation-filters:linearRGB;solid-color:#000000;solid-opacity:1;vector-effect:none;fill:#616161;fill-opacity:1;fill-rule:nonzero;stroke:#313131;stroke-width:1.40668511;stroke-linecap:butt;stroke-linejoin:round;stroke-miterlimit:4;stroke-dasharray:none;stroke-dashoffset:0;stroke-opacity:1;color-rendering:auto;image-rendering:auto;shape-rendering:auto;text-rendering:auto;enable-background:accumulate"
         d="m 42.957177,20.628086 c -0.126986,23.6349 0,0 -0.05584,7.713361 l -1.495302,0.694816 1.404413,0.891102 0.01974,14.335621 c 3.71e-4,0.09895 0.09736,0.179079 0.217101,0.179386 H 66.62221 c 0.119745,-3.07e-4 0.188824,-0.219962 0.189197,-0.318899 l -0.02791,-23.274848 c -3.72e-4,-0.09893 -0.04156,-0.290688 -0.161294,-0.290997 l -23.665025,0.07045 c 3e-6,2e-6 -4e-6,6e-6 -6e-6,1e-5 z m 6e-6,-10e-6 c 23.665025,-0.07045 16.185841,0.202233 23.665025,-0.07045 V 44.442372 L 42.830191,44.262986 Z"
         id="rect6123"
         inkscape:connector-curvature="0"
         sodipodi:nodetypes="ccccccccccccccccc" />
    </g>
    <g
       style="fill:#313131;fill-opacity:1"
       transform="matrix(0.0112744,0,0,-0.0112744,44.866346,40.27996)"
       id="g4">
      <path
         d="M 256,224 V 32 Q 256,19 246.5,9.5 237,0 224,0 H 32 Q 19,0 9.5,9.5 0,19 0,32 V 224 Q 0,237 9.5,246.5 19,256 32,256 h 192 q 13,0 22.5,-9.5 Q 256,237 256,224 Z m 0,384 V 416 q 0,-13 -9.5,-22.5 Q 237,384 224,384 H 32 Q 19,384 9.5,393.5 0,403 0,416 V 608 Q 0,621 9.5,630.5 19,640 32,640 h 192 q 13,0 22.5,-9.5 Q 256,621 256,608 Z m 0,384 V 800 q 0,-13 -9.5,-22.5 Q 237,768 224,768 H 32 Q 19,768 9.5,777.5 0,787 0,800 v 192 q 0,13 9.5,22.5 9.5,9.5 22.5,9.5 h 192 q 13,0 22.5,-9.5 Q 256,1005 256,992 Z M 1792,224 V 32 Q 1792,19 1782.5,9.5 1773,0 1760,0 H 416 Q 403,0 393.5,9.5 384,19 384,32 v 192 q 0,13 9.5,22.5 9.5,9.5 22.5,9.5 h 1344 q 13,0 22.5,-9.5 9.5,-9.5 9.5,-22.5 z M 256,1376 v -192 q 0,-13 -9.5,-22.5 Q 237,1152 224,1152 H 32 q -13,0 -22.5,9.5 Q 0,1171 0,1184 v 192 q 0,13 9.5,22.5 9.5,9.5 22.5,9.5 h 192 q 13,0 22.5,-9.5 9.5,-9.5 9.5,-22.5 z M 1792,608 V 416 q 0,-13 -9.5,-22.5 Q 1773,384 1760,384 H 416 q -13,0 -22.5,9.5 Q 384,403 384,416 v 192 q 0,13 9.5,22.5 9.5,9.5 22.5,9.5 h 1344 q 13,0 22.5,-9.5 9.5,-9.5 9.5,-22.5 z m 0,384 V 800 q 0,-13 -9.5,-22.5 Q 1773,768 1760,768 H 416 q -13,0 -22.5,9.5 Q 384,787 384,800 v 192 q 0,13 9.5,22.5 9.5,9.5 22.5,9.5 h 1344 q 13,0 22.5,-9.5 9.5,-9.5 9.5,-22.5 z m 0,384 v -192 q 0,-13 -9.5,-22.5 -9.5,-9.5 -22.5,-9.5 H 416 q -13,0 -22.5,9.5 -9.5,9.5 -9.5,22.5 v 192 q 0,13 9.5,22.5 9.5,9.5 22.5,9.5 h 1344 q 13,0 22.5,-9.5 9.5,-9.5 9.5,-22.5 z"
         id="path6-6"
         inkscape:connector-curvature="0"
         style="fill:#313131;fill-opacity:1" />
    </g>
  </g>
</svg>
