<?xml version="1.0" encoding="UTF-8" standalone="no"?>
<svg
   xmlns:dc="http://purl.org/dc/elements/1.1/"
   xmlns:cc="http://creativecommons.org/ns#"
   xmlns:rdf="http://www.w3.org/1999/02/22-rdf-syntax-ns#"
   xmlns:svg="http://www.w3.org/2000/svg"
   xmlns="http://www.w3.org/2000/svg"
   xmlns:sodipodi="http://sodipodi.sourceforge.net/DTD/sodipodi-0.dtd"
   xmlns:inkscape="http://www.inkscape.org/namespaces/inkscape"
   width="90"
   height="65"
   viewBox="0 0 90 65"
   version="1.1"
   id="svg6"
   sodipodi:docname="pin.svg"
   inkscape:version="0.92.2 (5c3e80d, 2017-08-06)">
  <metadata
     id="metadata12">
    <rdf:RDF>
      <cc:Work
         rdf:about="">
        <dc:format>image/svg+xml</dc:format>
        <dc:type
           rdf:resource="http://purl.org/dc/dcmitype/StillImage" />
        <dc:title></dc:title>
      </cc:Work>
    </rdf:RDF>
  </metadata>
  <defs
     id="defs10" />
  <sodipodi:namedview
     pagecolor="#ffffff"
     bordercolor="#666666"
     borderopacity="1"
     objecttolerance="10"
     gridtolerance="10"
     guidetolerance="10"
     inkscape:pageopacity="0"
     inkscape:pageshadow="2"
     inkscape:window-width="1625"
     inkscape:window-height="927"
     id="namedview8"
     showgrid="false"
     inkscape:pagecheckerboard="false"
     showborder="false"
     inkscape:zoom="4.9166666"
     inkscape:cx="18.922524"
     inkscape:cy="22.978279"
     inkscape:window-x="1984"
     inkscape:window-y="58"
     inkscape:window-maximized="0"
     inkscape:current-layer="svg6" />
  <rect
     style="opacity:1;fill:#1fa4b6;fill-opacity:1;stroke:none;stroke-width:0.5;stroke-linejoin:round;stroke-miterlimit:4;stroke-dasharray:none;stroke-dashoffset:0;stroke-opacity:1"
     id="rect4519"
     width="90"
     height="65"
     x="0"
     y="0" />
  <circle
     style="opacity:1;fill:#e05b49;fill-opacity:1;stroke:none;stroke-width:0.53044713;stroke-linejoin:round;stroke-miterlimit:4;stroke-dasharray:none;stroke-dashoffset:0;stroke-opacity:1"
     id="path4515"
     cx="45"
     cy="32.5"
     r="26" />
  <path
     d="M 0,17 H 48 V 65 H 0 Z"
     id="path2"
     inkscape:connector-curvature="0"
     style="fill:none" />
  <g
     id="g6072"
     transform="matrix(0.04183247,0,0,0.04183247,24.083765,11.582196)"
     style="fill:#5b2b0b;fill-opacity:1">
    <path
       id="path6070"
       d="m 843,173.9 c -11.2,-11.2 -29.5,-11.2 -40.8,0 L 190.8,785.3 c -11.2,11.2 -11.2,29.5 0,40.8 11.2,11.3 29.5,11.3 40.8,0 L 843,214.7 c 11.2,-11.3 11.2,-29.6 0,-40.8 z m -39.1,157 c 10.2,-10.3 26.6,-11 37.8,-1.8 59.8,49.6 106.6,100.7 135,132.9 17.8,20.2 17.8,51.9 0,72.1 -71,83.6 -257.6,282.5 -476.7,282.5 -35.8,0 -70.8,-5.3 -104.5,-14.6 -10.1,-2.8 -18,-10.8 -20.6,-21 -2.7,-10.1 0.3,-21 7.7,-28.4 -0.1,-0.1 -0.1,-0.1 -0.1,-0.2 7.1,-7.1 17.5,-9.8 27.2,-7.1 38.8,11 69.7,13.6 90.3,13.6 178.2,0 338.7,-155.8 413.1,-240.6 9.4,-11 9.3,-27.3 -0.3,-38.1 -36.8,-42.1 -72.6,-77 -106.7,-105.6 -6.4,-5.3 -10.3,-13 -10.7,-21.3 -0.4,-8.4 2.7,-16.5 8.5,-22.4 0,0 0,0 0,0 z M 210.8,679.5 C 200.3,690 183.6,691 172,681.8 104.7,628.5 52.7,571.7 23.3,536.9 5.5,516.7 5.5,485 23.3,464.8 91.4,381.2 280.9,182.3 500,182.3 c 34,0 87.3,13.6 125,24.6 9.4,2.5 16.8,9.9 19.3,19.3 2.5,9.5 -0.1,19.5 -7.1,26.4 0.1,0.1 0.1,0.1 0.1,0.1 -7.4,7.4 -18.2,9.9 -28.1,6.7 C 561.5,243.4 523.8,240 500,240 321.8,240 161.4,395.7 86.9,480.6 c -9.5,11 -9.3,27.3 0.3,38.2 42,48 82.6,86.6 121.1,117.4 6.5,5.1 10.5,12.7 11,20.9 0.5,8.2 -2.6,16.3 -8.4,22.1 0.1,0.1 0,0.2 -0.1,0.3 z M 669.5,465.3 c 2.2,10.8 3.4,22.3 3.4,34.1 0,95.4 -77.5,172.9 -172.9,172.9 -11.8,0 -23.3,-1.2 -34.1,-3.4 l 56.5,-56.5 c 45.7,-9 81.7,-44.9 90.7,-90.7 z m -333.4,88.9 c -5.9,-17.3 -9,-35.7 -9,-54.8 0,-95.4 77.5,-172.9 172.9,-172.9 19.1,0 37.5,3.1 54.8,9 l -48.9,48.9 -5.9,-0.3 c -63.6,0 -115.3,51.7 -115.3,115.3 l 0.3,5.9 z"
       inkscape:connector-curvature="0"
       style="fill:#5b2b0b;fill-opacity:1" />
  </g>
</svg>
