<?xml version="1.0" encoding="UTF-8" standalone="no"?>
<svg
   xmlns:dc="http://purl.org/dc/elements/1.1/"
   xmlns:cc="http://creativecommons.org/ns#"
   xmlns:rdf="http://www.w3.org/1999/02/22-rdf-syntax-ns#"
   xmlns:svg="http://www.w3.org/2000/svg"
   xmlns="http://www.w3.org/2000/svg"
   xmlns:xlink="http://www.w3.org/1999/xlink"
   xmlns:sodipodi="http://sodipodi.sourceforge.net/DTD/sodipodi-0.dtd"
   xmlns:inkscape="http://www.inkscape.org/namespaces/inkscape"
   width="90"
   height="65"
   viewBox="0 0 90 65"
   version="1.1"
   id="svg6"
   sodipodi:docname="gear.svg"
   inkscape:version="0.92.2 (5c3e80d, 2017-08-06)">
  <metadata
     id="metadata12">
    <rdf:RDF>
      <cc:Work
         rdf:about="">
        <dc:format>image/svg+xml</dc:format>
        <dc:type
           rdf:resource="http://purl.org/dc/dcmitype/StillImage" />
        <dc:title></dc:title>
      </cc:Work>
    </rdf:RDF>
  </metadata>
  <defs
     id="defs10">
    <linearGradient
       inkscape:collect="always"
       id="vertical">
      <stop
         style="stop-color:#999796;stop-opacity:1;"
         offset="0"
         id="stop5145" />
      <stop
         style="stop-color:#999796;stop-opacity:0;"
         offset="1"
         id="stop5147" />
    </linearGradient>
    <radialGradient
       inkscape:collect="always"
       xlink:href="#vertical"
       id="radialGradient5158"
       cx="297.79547"
       cy="330.22308"
       fx="297.79547"
       fy="330.22308"
       r="192"
       gradientUnits="userSpaceOnUse"
       gradientTransform="matrix(0.00624062,-1.8962781,2.2620381,0.00744449,-342.10386,959.45653)" />
  </defs>
  <sodipodi:namedview
     pagecolor="#ffffff"
     bordercolor="#666666"
     borderopacity="1"
     objecttolerance="10"
     gridtolerance="10"
     guidetolerance="10"
     inkscape:pageopacity="0"
     inkscape:pageshadow="2"
     inkscape:window-width="1920"
     inkscape:window-height="1043"
     id="namedview8"
     showgrid="false"
     inkscape:pagecheckerboard="false"
     showborder="false"
     inkscape:zoom="2.8284271"
     inkscape:cx="-48.518359"
     inkscape:cy="-3.422207"
     inkscape:window-x="1920"
     inkscape:window-y="0"
     inkscape:window-maximized="1"
     inkscape:current-layer="svg6" />
  <rect
     style="opacity:1;fill:#1d83c1;fill-opacity:1;stroke:none;stroke-width:0.5;stroke-linejoin:round;stroke-miterlimit:4;stroke-dasharray:none;stroke-dashoffset:0;stroke-opacity:1"
     id="rect4519"
     width="90"
     height="65"
     x="0"
     y="0" />
  <circle
     style="opacity:1;fill:#e27c3e;fill-opacity:1;stroke:none;stroke-width:0.53044713;stroke-linejoin:round;stroke-miterlimit:4;stroke-dasharray:none;stroke-dashoffset:0;stroke-opacity:1"
     id="path4515"
     cx="45"
     cy="32.5"
     r="26" />
  <path
     d="M 0,17 H 48 V 65 H 0 Z"
     id="path2"
     inkscape:connector-curvature="0"
     style="fill:none" />
  <g
     id="g5039"
     transform="matrix(0.13396255,0,0,0.13396255,22.500061,6.6786489)"
     style="fill:#e8e6e4;fill-opacity:1;stroke:#999796;stroke-opacity:1;stroke-width:3.98618868;stroke-miterlimit:4;stroke-dasharray:none">
    <path
       id="path4984"
       d="m 306.04395,111.61733 c 0.24262,-6.86719 -3.45671,-21.331587 -8.41324,-26.33916 -5.293,-5.804 -14.05788,-11.466586 -22.52598,-11.784128 C 207.00608,70.940434 60.469,73.172 60.469,73.172 55.214006,73.1641 50.75,77.238 50.249,82.48 l -2.095,16.778 h 119.078 c 7.732,0 13.836,6.268 13.634,14 -0.203,7.732 -6.635,14 -14.367,14 H 126.78 c 0.007,0.02 0.014,0.04 0.021,0.059 H 10.163 c -5.468,0 -10.017,4.432 -10.16,9.9 -0.143,5.468 4.173,9.9 9.641,9.9 H 164.06 c 7.168,1.104 12.523,7.303 12.326,14.808 -0.216,8.242 -7.039,14.925 -15.267,14.994 H 54.661 c -5.523,0 -10.117,4.477 -10.262,10 -0.145,5.523 4.215,10 9.738,10 h 105.204 c 7.273,1.013 12.735,7.262 12.537,14.84 -0.217,8.284 -7.109,15 -15.393,15 H 35.792 v 0.011 H 25.651 c -5.523,0 -10.117,4.477 -10.262,10 -0.145,5.523 4.214,10 9.738,10 h 8.752 l -3.423,35.818 c -0.734,8.137 1.782,15.821 7.086,21.637 5.292,5.805 12.683,9.001 20.81,9.001 132.73802,0.0632 85.73228,-0.40257 201.25942,-0.40257 7.618,0 20.02517,-3.05185 26.85192,-9.67896 5.88807,-5.71587 8.98769,-15.16872 9.03162,-22.90186 5.35356,-60.15663 6.70046,-59.69633 10.54899,-168.62528 z"
       inkscape:connector-curvature="0"
       sodipodi:nodetypes="scssccscsccssscccsssccsccsssccccsacs"
       style="fill:#e8e6e4;fill-opacity:1;stroke:#999796;stroke-opacity:1;stroke-width:3.98618868;stroke-miterlimit:4;stroke-dasharray:none" />
    <g
       id="g4986"
       style="fill:#e8e6e4;fill-opacity:1;stroke:#999796;stroke-opacity:1;stroke-width:3.98618868;stroke-miterlimit:4;stroke-dasharray:none" />
    <g
       id="g4988"
       style="fill:#e8e6e4;fill-opacity:1;stroke:#999796;stroke-opacity:1;stroke-width:3.98618868;stroke-miterlimit:4;stroke-dasharray:none" />
    <g
       id="g4990"
       style="fill:#e8e6e4;fill-opacity:1;stroke:#999796;stroke-opacity:1;stroke-width:3.98618868;stroke-miterlimit:4;stroke-dasharray:none" />
    <g
       id="g4992"
       style="fill:#e8e6e4;fill-opacity:1;stroke:#999796;stroke-opacity:1;stroke-width:3.98618868;stroke-miterlimit:4;stroke-dasharray:none" />
    <g
       id="g4994"
       style="fill:#e8e6e4;fill-opacity:1;stroke:#999796;stroke-opacity:1;stroke-width:3.98618868;stroke-miterlimit:4;stroke-dasharray:none" />
    <g
       id="g4996"
       style="fill:#e8e6e4;fill-opacity:1;stroke:#999796;stroke-opacity:1;stroke-width:3.98618868;stroke-miterlimit:4;stroke-dasharray:none" />
    <g
       id="g4998"
       style="fill:#e8e6e4;fill-opacity:1;stroke:#999796;stroke-opacity:1;stroke-width:3.98618868;stroke-miterlimit:4;stroke-dasharray:none" />
    <g
       id="g5000"
       style="fill:#e8e6e4;fill-opacity:1;stroke:#999796;stroke-opacity:1;stroke-width:3.98618868;stroke-miterlimit:4;stroke-dasharray:none" />
    <g
       id="g5002"
       style="fill:#e8e6e4;fill-opacity:1;stroke:#999796;stroke-opacity:1;stroke-width:3.98618868;stroke-miterlimit:4;stroke-dasharray:none" />
    <g
       id="g5004"
       style="fill:#e8e6e4;fill-opacity:1;stroke:#999796;stroke-opacity:1;stroke-width:3.98618868;stroke-miterlimit:4;stroke-dasharray:none" />
    <g
       id="g5006"
       style="fill:#e8e6e4;fill-opacity:1;stroke:#999796;stroke-opacity:1;stroke-width:3.98618868;stroke-miterlimit:4;stroke-dasharray:none" />
    <g
       id="g5008"
       style="fill:#e8e6e4;fill-opacity:1;stroke:#999796;stroke-opacity:1;stroke-width:3.98618868;stroke-miterlimit:4;stroke-dasharray:none" />
    <g
       id="g5010"
       style="fill:#e8e6e4;fill-opacity:1;stroke:#999796;stroke-opacity:1;stroke-width:3.98618868;stroke-miterlimit:4;stroke-dasharray:none" />
    <g
       id="g5012"
       style="fill:#e8e6e4;fill-opacity:1;stroke:#999796;stroke-opacity:1;stroke-width:3.98618868;stroke-miterlimit:4;stroke-dasharray:none" />
    <g
       id="g5014"
       style="fill:#e8e6e4;fill-opacity:1;stroke:#999796;stroke-opacity:1;stroke-width:3.98618868;stroke-miterlimit:4;stroke-dasharray:none" />
  </g>
  <g
     transform="matrix(0.02785376,0,0,0.02785376,46.803147,33.719739)"
     id="g3"
     style="fill:url(#radialGradient5158);fill-opacity:1">
    <path
       style="fill:url(#radialGradient5158);fill-opacity:1"
       inkscape:connector-curvature="0"
       id="path5"
       d="m 432,240 h -80 c -8.8,0 -16,7.2 -16,16 0,8.8 7.2,16 16,16 h 80 c 8.8,0 16,-7.2 16,-16 0,-8.8 -7.2,-16 -16,-16 z" />
    <path
       style="fill:url(#radialGradient5158);fill-opacity:1"
       inkscape:connector-curvature="0"
       id="path7"
       d="m 176,256 c 0,-8.8 -7.2,-16 -16,-16 H 80 c -8.8,0 -16,7.2 -16,16 0,8.8 7.2,16 16,16 h 80 c 8.8,0 16,-7.2 16,-16 z" />
    <path
       style="fill:url(#radialGradient5158);fill-opacity:1"
       inkscape:connector-curvature="0"
       id="path9"
       d="m 256,336 c -8.8,0 -16,7.2 -16,16 v 80 c 0,8.8 7.2,16 16,16 8.8,0 16,-7.2 16,-16 v -80 c 0,-8.8 -7.2,-16 -16,-16 z" />
    <path
       style="fill:url(#radialGradient5158);fill-opacity:1"
       inkscape:connector-curvature="0"
       id="path11"
       d="m 256,64 c -8.8,0 -16,7.2 -16,16 v 80 c 0,8.8 7.2,16 16,16 8.8,0 16,-7.2 16,-16 V 80 c 0,-8.8 -7.2,-16 -16,-16 z" />
    <path
       style="fill:url(#radialGradient5158);fill-opacity:1"
       inkscape:connector-curvature="0"
       id="path13"
       d="m 325.3,216 c 4.4,7.7 14.2,10.3 21.9,5.9 l 69.3,-40 c 7.7,-4.4 10.3,-14.2 5.9,-21.9 -4.4,-7.7 -14.2,-10.3 -21.9,-5.9 l -69.3,40 c -7.7,4.5 -10.3,14.2 -5.9,21.9 z" />
    <path
       style="fill:url(#radialGradient5158);fill-opacity:1"
       inkscape:connector-curvature="0"
       id="path15"
       d="m 186.7,296 c -4.4,-7.7 -14.2,-10.3 -21.9,-5.9 l -69.3,40 c -7.7,4.4 -10.3,14.2 -5.9,21.9 4.4,7.7 14.2,10.3 21.9,5.9 l 69.3,-40 c 7.7,-4.5 10.3,-14.2 5.9,-21.9 z" />
    <path
       style="fill:url(#radialGradient5158);fill-opacity:1"
       inkscape:connector-curvature="0"
       id="path17"
       d="m 317.9,331.1 c -4.4,-7.7 -14.2,-10.3 -21.9,-5.9 -7.7,4.4 -10.3,14.2 -5.9,21.9 l 40,69.3 c 4.4,7.7 14.2,10.3 21.9,5.9 7.7,-4.4 10.3,-14.2 5.9,-21.9 z" />
    <path
       style="fill:url(#radialGradient5158);fill-opacity:1"
       inkscape:connector-curvature="0"
       id="path19"
       d="m 181.9,95.6 c -4.4,-7.7 -14.2,-10.3 -21.9,-5.9 -7.7,4.4 -10.3,14.2 -5.9,21.9 l 40,69.3 c 4.4,7.7 14.2,10.3 21.9,5.9 7.7,-4.4 10.3,-14.2 5.9,-21.9 z" />
    <path
       style="fill:url(#radialGradient5158);fill-opacity:1"
       inkscape:connector-curvature="0"
       id="path21"
       d="m 296,186.7 c 7.7,4.4 17.4,1.8 21.9,-5.9 l 40,-69.3 c 4.4,-7.7 1.8,-17.4 -5.9,-21.9 -7.7,-4.4 -17.4,-1.8 -21.9,5.9 l -40,69.3 c -4.4,7.7 -1.8,17.5 5.9,21.9 z" />
    <path
       style="fill:url(#radialGradient5158);fill-opacity:1"
       inkscape:connector-curvature="0"
       id="path23"
       d="m 216,325.3 c -7.7,-4.4 -17.4,-1.8 -21.9,5.9 l -40,69.3 c -4.4,7.7 -1.8,17.4 5.9,21.9 7.7,4.4 17.4,1.8 21.9,-5.9 l 40,-69.3 c 4.4,-7.7 1.8,-17.5 -5.9,-21.9 z" />
    <path
       style="fill:url(#radialGradient5158);fill-opacity:1"
       inkscape:connector-curvature="0"
       id="path25"
       d="m 416.4,330.1 -69.3,-40 c -7.7,-4.4 -17.4,-1.8 -21.9,5.9 -4.4,7.7 -1.8,17.4 5.9,21.9 l 69.3,40 c 7.7,4.4 17.4,1.8 21.9,-5.9 4.4,-7.7 1.8,-17.4 -5.9,-21.9 z" />
    <path
       style="fill:url(#radialGradient5158);fill-opacity:1"
       inkscape:connector-curvature="0"
       id="path27"
       d="m 95.6,181.9 69.3,40 c 7.7,4.4 17.4,1.8 21.9,-5.9 4.5,-7.7 1.8,-17.4 -5.9,-21.9 l -69.3,-40 c -7.7,-4.4 -17.4,-1.8 -21.9,5.9 -4.4,7.7 -1.8,17.4 5.9,21.9 z" />
  </g>
</svg>
