<?xml version="1.0" encoding="UTF-8" standalone="no"?>
<svg
   xmlns:dc="http://purl.org/dc/elements/1.1/"
   xmlns:cc="http://creativecommons.org/ns#"
   xmlns:rdf="http://www.w3.org/1999/02/22-rdf-syntax-ns#"
   xmlns:svg="http://www.w3.org/2000/svg"
   xmlns="http://www.w3.org/2000/svg"
   xmlns:sodipodi="http://sodipodi.sourceforge.net/DTD/sodipodi-0.dtd"
   xmlns:inkscape="http://www.inkscape.org/namespaces/inkscape"
   width="90"
   height="65"
   viewBox="0 0 90 65"
   version="1.1"
   id="svg6"
   sodipodi:docname="gear.svg"
   inkscape:version="0.92.2 (5c3e80d, 2017-08-06)">
  <metadata
     id="metadata12">
    <rdf:RDF>
      <cc:Work
         rdf:about="">
        <dc:format>image/svg+xml</dc:format>
        <dc:type
           rdf:resource="http://purl.org/dc/dcmitype/StillImage" />
        <dc:title></dc:title>
      </cc:Work>
    </rdf:RDF>
  </metadata>
  <defs
     id="defs10" />
  <sodipodi:namedview
     pagecolor="#ffffff"
     bordercolor="#666666"
     borderopacity="1"
     objecttolerance="10"
     gridtolerance="10"
     guidetolerance="10"
     inkscape:pageopacity="0"
     inkscape:pageshadow="2"
     inkscape:window-width="1920"
     inkscape:window-height="1043"
     id="namedview8"
     showgrid="false"
     inkscape:pagecheckerboard="false"
     showborder="false"
     inkscape:zoom="6.9532167"
     inkscape:cx="77.061887"
     inkscape:cy="26.918647"
     inkscape:window-x="1920"
     inkscape:window-y="0"
     inkscape:window-maximized="1"
     inkscape:current-layer="svg6" />
  <rect
     style="opacity:1;fill:#130f0f;fill-opacity:1;stroke:none;stroke-width:0.5;stroke-linejoin:round;stroke-miterlimit:4;stroke-dasharray:none;stroke-dashoffset:0;stroke-opacity:1"
     id="rect4519"
     width="90"
     height="65"
     x="0"
     y="0" />
  <circle
     style="opacity:1;fill:#ecf0f0;fill-opacity:1;stroke:none;stroke-width:0.53044713;stroke-linejoin:round;stroke-miterlimit:4;stroke-dasharray:none;stroke-dashoffset:0;stroke-opacity:1"
     id="path4515"
     cx="45"
     cy="32.5"
     r="26" />
  <path
     d="M 0,17 H 48 V 65 H 0 Z"
     id="path2"
     inkscape:connector-curvature="0"
     style="fill:none" />
  <g
     id="g4777"
     transform="matrix(0.07732196,0,0,0.07732196,24.499946,11.999983)"
     style="fill:#7e1a99;fill-opacity:1">
    <g
       id="g4721"
       style="fill:#7e1a99;fill-opacity:1">
      <path
         id="path4719"
         d="m 523.08407,183.32631 c -39.4174,-21.3972 -80.8306,-36.3706 -126.5532,-34.8414 -26.187,0.884 -51.54653,7.2124 -76.90081,13.2482 -14.00439,3.32769 -28.0076,6.7152 -41.9386,10.3692 -4.2486,1.118 -8.428,1.6026 -12.5665,1.764 -4.1353,-0.15419 -8.3157,-0.646 -12.56018,-1.764 -13.93512,-3.654 -27.93432,-7.04151 -41.94292,-10.3692 -25.3574,-6.0306 -50.71377,-12.3642 -76.9008,-13.2482 -45.726754,-1.5292 -87.138895,13.4484 -126.5531137,34.8414 -17.9393983,9.738 -22.6117163,18.37881 -18.9325943,34.2428 4.3755134,18.8644 10.2046353,37.5306 18.5655153,54.9288 7.4232597,15.458 15.5576087,30.65581 24.6253607,45.41841 14.68608,23.89659 30.560421,45.4678 58.281808,55.424 16.825614,6.0398 33.994024,9.4074 51.801414,8.3356 9.91931,-0.602 18.90631,-4.8464 27.76321,-9.2366 8.7962,-4.366 17.7832,-8.3902 25.693,-14.2876 7.8534,-5.8594 16.2038,-11.3174 23.0218,-18.25701 0,0 28.2038,-27.4508 47.1386,-31.669 18.94519,4.22341 47.13841,31.669 47.13841,31.669 6.81819,6.93961 15.16959,12.39761 23.03019,18.25701 7.90461,5.8974 16.90112,9.9162 25.692,14.2876 8.84961,4.3902 17.83661,8.6336 27.76331,9.2366 17.80729,1.0708 34.9737,-2.2958 51.80132,-8.3356 27.71938,-9.951 43.60201,-31.52741 58.27658,-55.424 9.06981,-14.7574 17.2,-29.9594 24.6254,-45.41841 8.3556,-17.3982 14.18478,-36.0592 18.56548,-54.9288 3.67492,-15.86399 -0.99948,-24.5048 -18.93468,-34.2428 z M 126.55266,290.08072 C 90.965466,277.97571 72.50487,237.60594 72.50487,237.60594 c 0,0 39.24118,-20.7343 74.82839,-8.63462 35.5872,12.0998 54.0406,52.46959 54.0406,52.46959 0,0 -39.2392,20.7396 -74.8212,8.63981 z m 277.14877,0 c -35.58516,12.09979 -74.83056,-8.63881 -74.83056,-8.63881 0,0 18.46279,-40.3696 54.05203,-52.4694 35.57997,-12.0998 74.82116,8.6346 74.82116,8.6346 0,0 -18.45233,40.3686 -54.04263,52.47361 z"
         inkscape:connector-curvature="0"
         style="fill:#7e1a99;fill-opacity:1;stroke-width:1.04878044" />
    </g>
    <g
       id="g4723"
       style="fill:#7e1a99;fill-opacity:1" />
    <g
       id="g4725"
       style="fill:#7e1a99;fill-opacity:1" />
    <g
       id="g4727"
       style="fill:#7e1a99;fill-opacity:1" />
    <g
       id="g4729"
       style="fill:#7e1a99;fill-opacity:1" />
    <g
       id="g4731"
       style="fill:#7e1a99;fill-opacity:1" />
    <g
       id="g4733"
       style="fill:#7e1a99;fill-opacity:1" />
    <g
       id="g4735"
       style="fill:#7e1a99;fill-opacity:1" />
    <g
       id="g4737"
       style="fill:#7e1a99;fill-opacity:1" />
    <g
       id="g4739"
       style="fill:#7e1a99;fill-opacity:1" />
    <g
       id="g4741"
       style="fill:#7e1a99;fill-opacity:1" />
    <g
       id="g4743"
       style="fill:#7e1a99;fill-opacity:1" />
    <g
       id="g4745"
       style="fill:#7e1a99;fill-opacity:1" />
    <g
       id="g4747"
       style="fill:#7e1a99;fill-opacity:1" />
    <g
       id="g4749"
       style="fill:#7e1a99;fill-opacity:1" />
    <g
       id="g4751"
       style="fill:#7e1a99;fill-opacity:1" />
  </g>
</svg>
