<?xml version="1.0" encoding="UTF-8" standalone="no"?>
<svg
   xmlns:dc="http://purl.org/dc/elements/1.1/"
   xmlns:cc="http://creativecommons.org/ns#"
   xmlns:rdf="http://www.w3.org/1999/02/22-rdf-syntax-ns#"
   xmlns:svg="http://www.w3.org/2000/svg"
   xmlns="http://www.w3.org/2000/svg"
   xmlns:sodipodi="http://sodipodi.sourceforge.net/DTD/sodipodi-0.dtd"
   xmlns:inkscape="http://www.inkscape.org/namespaces/inkscape"
   width="90"
   height="65"
   viewBox="0 0 90 65"
   version="1.1"
   id="svg6"
   sodipodi:docname="search.svg"
   inkscape:version="0.92.2 (5c3e80d, 2017-08-06)">
  <metadata
     id="metadata12">
    <rdf:RDF>
      <cc:Work
         rdf:about="">
        <dc:format>image/svg+xml</dc:format>
        <dc:type
           rdf:resource="http://purl.org/dc/dcmitype/StillImage" />
        <dc:title />
      </cc:Work>
    </rdf:RDF>
  </metadata>
  <defs
     id="defs10" />
  <sodipodi:namedview
     pagecolor="#ffffff"
     bordercolor="#666666"
     borderopacity="1"
     objecttolerance="10"
     gridtolerance="10"
     guidetolerance="10"
     inkscape:pageopacity="0"
     inkscape:pageshadow="2"
     inkscape:window-width="1920"
     inkscape:window-height="1043"
     id="namedview8"
     showgrid="false"
     inkscape:pagecheckerboard="false"
     showborder="false"
     inkscape:zoom="4.9166667"
     inkscape:cx="-19.28902"
     inkscape:cy="29.577374"
     inkscape:window-x="1920"
     inkscape:window-y="0"
     inkscape:window-maximized="1"
     inkscape:current-layer="svg6" />
  <rect
     style="opacity:1;fill:#ba4c63;fill-opacity:1;stroke:none;stroke-width:0.5;stroke-linejoin:round;stroke-miterlimit:4;stroke-dasharray:none;stroke-dashoffset:0;stroke-opacity:1"
     id="rect4519"
     width="90"
     height="65"
     x="0"
     y="0" />
  <circle
     style="opacity:1;fill:#45b39c;fill-opacity:1;stroke:none;stroke-width:0.53044713;stroke-linejoin:round;stroke-miterlimit:4;stroke-dasharray:none;stroke-dashoffset:0;stroke-opacity:1"
     id="path4515"
     cx="45"
     cy="32.5"
     r="26" />
  <path
     d="M 0,17 H 48 V 65 H 0 Z"
     id="path2"
     inkscape:connector-curvature="0"
     style="fill:none" />
  <g
     id="g4670"
     transform="translate(-495.37737,-509.19776)"
     style="fill:#313131;fill-opacity:1;stroke:none;stroke-opacity:1;stroke-width:0.5;stroke-miterlimit:4;stroke-dasharray:none">
    <path
       id="path4668"
       d="m 558.07242,554.44454 -9.8692,-9.86922 c 0,0 0,0 -0.23308,0 1.173,-2.3498 1.87986,-4.69962 1.87986,-7.2825 0,-7.75247 -6.34259,-14.09506 -14.09506,-14.09506 -7.75248,0 -14.09888,6.34259 -14.09888,14.09506 0,7.75247 6.34258,14.09505 14.09506,14.09505 2.58288,0 5.16958,-0.70303 7.2825,-2.11292 v 0 l 9.8654,9.8654 c 1.40988,1.40988 3.52281,1.40988 4.9327,0 1.64678,-1.173 1.64678,-3.28592 0.2407,-4.69581 z m -31.71674,-17.15172 c 0,-5.16959 4.22967,-9.39544 9.39544,-9.39544 5.16958,0 9.39543,4.22967 9.39543,9.39544 0,5.16959 -4.22966,9.39925 -9.39543,9.39925 -5.16577,0 -9.39544,-4.22966 -9.39544,-9.39925 z"
       inkscape:connector-curvature="0"
       style="stroke-width:0.5;fill:#313131;fill-opacity:1;stroke:none;stroke-opacity:1;stroke-miterlimit:4;stroke-dasharray:none" />
  </g>
</svg>
