<?xml version="1.0" encoding="UTF-8" standalone="no"?>
<svg
   xmlns:dc="http://purl.org/dc/elements/1.1/"
   xmlns:cc="http://creativecommons.org/ns#"
   xmlns:rdf="http://www.w3.org/1999/02/22-rdf-syntax-ns#"
   xmlns:svg="http://www.w3.org/2000/svg"
   xmlns="http://www.w3.org/2000/svg"
   xmlns:sodipodi="http://sodipodi.sourceforge.net/DTD/sodipodi-0.dtd"
   xmlns:inkscape="http://www.inkscape.org/namespaces/inkscape"
   width="90"
   height="65"
   viewBox="0 0 90 65"
   version="1.1"
   id="svg6"
   sodipodi:docname="gear.svg"
   inkscape:version="0.92.2 (5c3e80d, 2017-08-06)">
  <metadata
     id="metadata12">
    <rdf:RDF>
      <cc:Work
         rdf:about="">
        <dc:format>image/svg+xml</dc:format>
        <dc:type
           rdf:resource="http://purl.org/dc/dcmitype/StillImage" />
        <dc:title></dc:title>
      </cc:Work>
    </rdf:RDF>
  </metadata>
  <defs
     id="defs10" />
  <sodipodi:namedview
     pagecolor="#ffffff"
     bordercolor="#666666"
     borderopacity="1"
     objecttolerance="10"
     gridtolerance="10"
     guidetolerance="10"
     inkscape:pageopacity="0"
     inkscape:pageshadow="2"
     inkscape:window-width="1920"
     inkscape:window-height="1043"
     id="namedview8"
     showgrid="false"
     inkscape:pagecheckerboard="false"
     showborder="false"
     inkscape:zoom="0.30729167"
     inkscape:cx="822.32819"
     inkscape:cy="-368.32367"
     inkscape:window-x="1920"
     inkscape:window-y="0"
     inkscape:window-maximized="1"
     inkscape:current-layer="svg6" />
  <rect
     style="opacity:1;fill:#ccb2a3;fill-opacity:1;stroke:none;stroke-width:0.5;stroke-linejoin:round;stroke-miterlimit:4;stroke-dasharray:none;stroke-dashoffset:0;stroke-opacity:1"
     id="rect4519"
     width="90"
     height="65"
     x="0"
     y="0" />
  <circle
     style="opacity:1;fill:#334d5c;fill-opacity:1;stroke:none;stroke-width:0.53044713;stroke-linejoin:round;stroke-miterlimit:4;stroke-dasharray:none;stroke-dashoffset:0;stroke-opacity:1"
     id="path4515"
     cx="45"
     cy="32.5"
     r="26" />
  <path
     d="M 0,17 H 48 V 65 H 0 Z"
     id="path2"
     inkscape:connector-curvature="0"
     style="fill:none" />
  <path
     d="m 60.259202,34.503028 c 0.08218,-0.657404 0.143807,-1.32508 0.143807,-2.003028 0,-0.677948 -0.06163,-1.345625 -0.143807,-2.003029 l 4.345031,-3.400012 C 64.994567,26.7888 65.107558,26.234116 64.85076,25.78215 l -4.108777,-7.118455 c -0.256798,-0.441693 -0.790939,-0.626588 -1.253176,-0.441693 l -5.115427,2.06466 c -1.05801,-0.811484 -2.218739,-1.499704 -3.471916,-2.023573 l -0.770396,-5.444127 c -0.09245,-0.482782 -0.513597,-0.862844 -1.027194,-0.862844 h -8.217553 c -0.513597,0 -0.934746,0.380062 -1.016922,0.862844 l -0.770396,5.444127 c -1.253176,0.523869 -2.413906,1.201817 -3.471916,2.023573 l -5.115426,-2.06466 c -0.462238,-0.174623 -0.996379,0 -1.253177,0.441693 l -4.108777,7.118455 c -0.256798,0.441694 -0.143807,0.996379 0.246527,1.314809 l 4.334759,3.400012 c -0.08217,0.657404 -0.143807,1.325082 -0.143807,2.003029 0,0.677948 0.06163,1.345624 0.143807,2.003028 l -4.334759,3.400013 c -0.390334,0.308158 -0.503325,0.862843 -0.246527,1.314808 l 4.108777,7.118455 c 0.256798,0.441694 0.790939,0.626589 1.253177,0.441694 l 5.115426,-2.06466 c 1.05801,0.811483 2.21874,1.499703 3.471916,2.023572 l 0.770396,5.444129 c 0.08218,0.482781 0.503325,0.862843 1.016922,0.862843 h 8.217553 c 0.513597,0 0.934747,-0.380062 1.016922,-0.862843 l 0.770396,-5.444129 c 1.253177,-0.523869 2.413906,-1.201817 3.471916,-2.023572 l 5.115427,2.06466 c 0.462237,0.174623 0.996378,0 1.253176,-0.441694 l 4.108777,-7.118455 c 0.256798,-0.441693 0.143807,-0.996378 -0.246527,-1.314808 z m -15.264104,5.187331 c -3.975242,0 -7.190359,-3.215117 -7.190359,-7.190359 0,-3.975242 3.215117,-7.190358 7.190359,-7.190358 3.975241,0 7.190358,3.215116 7.190358,7.190358 0,3.975242 -3.215117,7.190359 -7.190358,7.190359 z"
     id="path4"
     inkscape:connector-curvature="0"
     style="fill:#efc84a;fill-opacity:1;stroke:#9b7713;stroke-width:1.02699995;stroke-miterlimit:4;stroke-dasharray:none;stroke-opacity:1" />
</svg>
