<?xml version="1.0" encoding="UTF-8" standalone="no"?>
<svg
   xmlns:dc="http://purl.org/dc/elements/1.1/"
   xmlns:cc="http://creativecommons.org/ns#"
   xmlns:rdf="http://www.w3.org/1999/02/22-rdf-syntax-ns#"
   xmlns:svg="http://www.w3.org/2000/svg"
   xmlns="http://www.w3.org/2000/svg"
   xmlns:sodipodi="http://sodipodi.sourceforge.net/DTD/sodipodi-0.dtd"
   xmlns:inkscape="http://www.inkscape.org/namespaces/inkscape"
   width="90"
   height="65"
   viewBox="0 0 90 65"
   version="1.1"
   id="svg6"
   sodipodi:docname="gear.svg"
   inkscape:version="0.92.2 (5c3e80d, 2017-08-06)">
  <metadata
     id="metadata12">
    <rdf:RDF>
      <cc:Work
         rdf:about="">
        <dc:format>image/svg+xml</dc:format>
        <dc:type
           rdf:resource="http://purl.org/dc/dcmitype/StillImage" />
        <dc:title></dc:title>
      </cc:Work>
    </rdf:RDF>
  </metadata>
  <defs
     id="defs10">
    <radialGradient
       id="path1535_1_"
       cx="287.27551"
       cy="-2950.4387"
       r="17.376499"
       gradientTransform="matrix(0.5242,0,0,-0.11049478,-127.81636,-295.39434)"
       gradientUnits="userSpaceOnUse">
      <stop
         offset="0"
         style="stop-color:#000000"
         id="stop5194" />
      <stop
         offset="1"
         style="stop-color:#000000;stop-opacity:0"
         id="stop5196" />
    </radialGradient>
    <radialGradient
       id="rect1539_1_"
       cx="52.1642"
       cy="1.0189"
       r="15.0952"
       gradientTransform="matrix(0.9508,0,0,-1.0004855,-19.065075,28.197299)"
       gradientUnits="userSpaceOnUse">
      <stop
         offset="0"
         style="stop-color:#F2F4F1"
         id="stop5201" />
      <stop
         offset="1"
         style="stop-color:#D3D7CF"
         id="stop5203" />
    </radialGradient>
    <linearGradient
       id="rect1539_2_"
       gradientUnits="userSpaceOnUse"
       x1="-254.4203"
       y1="385.84341"
       x2="-254.4203"
       y2="364.34341"
       gradientTransform="matrix(1,0,0,1.005412,5.3378247,12.629801)">
      <stop
         offset="0"
         style="stop-color:#EEEEEC"
         id="stop5206" />
      <stop
         offset="1"
         style="stop-color:#FFFFFF"
         id="stop5208" />
    </linearGradient>
    <linearGradient
       id="path1547_1_"
       gradientUnits="userSpaceOnUse"
       x1="301.922"
       y1="-298.24731"
       x2="303.06491"
       y2="-299.68979"
       gradientTransform="matrix(0.5242,0,0,-0.52985212,-113.93698,-144.6098)">
      <stop
         offset="0"
         style="stop-color:#FFFFFF;stop-opacity:0"
         id="stop5215" />
      <stop
         offset="0.5"
         style="stop-color:#FFFFFF"
         id="stop5217" />
      <stop
         offset="1"
         style="stop-color:#FFFFFF;stop-opacity:0"
         id="stop5219" />
    </linearGradient>
    <linearGradient
       id="path1549_1_"
       gradientUnits="userSpaceOnUse"
       x1="270.80869"
       y1="-299.65561"
       x2="271.75931"
       y2="-298.50659"
       gradientTransform="matrix(0.5242,0,0,-0.52985212,-125.56587,-144.57954)">
      <stop
         offset="0"
         style="stop-color:#FFFFFF;stop-opacity:0"
         id="stop5223" />
      <stop
         offset="0.5"
         style="stop-color:#FFFFFF"
         id="stop5225" />
      <stop
         offset="1"
         style="stop-color:#FFFFFF;stop-opacity:0"
         id="stop5227" />
    </linearGradient>
  </defs>
  <sodipodi:namedview
     pagecolor="#ffffff"
     bordercolor="#666666"
     borderopacity="1"
     objecttolerance="10"
     gridtolerance="10"
     guidetolerance="10"
     inkscape:pageopacity="0"
     inkscape:pageshadow="2"
     inkscape:window-width="1920"
     inkscape:window-height="1043"
     id="namedview8"
     showgrid="false"
     inkscape:pagecheckerboard="false"
     showborder="false"
     inkscape:zoom="5.6568543"
     inkscape:cx="27.7005"
     inkscape:cy="54.282097"
     inkscape:window-x="1920"
     inkscape:window-y="0"
     inkscape:window-maximized="1"
     inkscape:current-layer="svg6" />
  <rect
     style="opacity:1;fill:#1037b5;fill-opacity:1;stroke:none;stroke-width:0.5;stroke-linejoin:round;stroke-miterlimit:4;stroke-dasharray:none;stroke-dashoffset:0;stroke-opacity:1"
     id="rect4519"
     width="90"
     height="65"
     x="0"
     y="0" />
  <circle
     style="opacity:1;fill:#efc84a;fill-opacity:1;stroke:none;stroke-width:0.53044713;stroke-linejoin:round;stroke-miterlimit:4;stroke-dasharray:none;stroke-dashoffset:0;stroke-opacity:1"
     id="path4515"
     cx="45"
     cy="32.5"
     r="26" />
  <path
     d="M 0,17 H 48 V 65 H 0 Z"
     id="path2"
     inkscape:connector-curvature="0"
     style="fill:none" />
  <g
     id="g5330"
     transform="translate(14.364175,10.49976)">
    <path
       style="fill:#babdb6;stroke:#888a85;stroke-width:0.99999505"
       inkscape:connector-curvature="0"
       id="rect1537"
       inkscape:r_cy="true"
       inkscape:r_cx="true"
       d="m 16.621825,11.471566 h 28.028 c 1.417,0 2.566,1.149186 2.566,2.565812 v 15.925726 c 0,1.416625 -1.149,2.565811 -2.566,2.565811 h -28.028 c -1.417,0 -2.566,-1.14818 -2.566,-2.565811 V 14.037378 c -0.001,-1.416626 1.148,-2.565812 2.566,-2.565812 z" />
    <path
       style="fill:url(#rect1539_1_);stroke:url(#rect1539_2_);stroke-width:0.99999505"
       inkscape:connector-curvature="0"
       id="rect1539"
       inkscape:r_cy="true"
       inkscape:r_cx="true"
       d="m 18.200825,14.431499 h 24.658 c 0.729,0 1.321,0.591183 1.321,1.320106 V 26.23202 c 0,0.728924 -0.592,1.320106 -1.321,1.320106 h -24.658 c -0.729,0 -1.321,-0.592188 -1.321,-1.320106 V 15.751605 c 0.001,-0.728923 0.592,-1.320106 1.321,-1.320106 z" />
    <path
       style="opacity:0.48890004;fill:none;stroke:#ffffff;stroke-width:0.99999505"
       inkscape:connector-curvature="0"
       id="rect1541"
       inkscape:r_cy="true"
       inkscape:r_cx="true"
       enable-background="new    "
       d="m 16.608825,12.407605 h 28.101 c 0.86,0 1.557,0.697756 1.557,1.556378 v 15.986051 c 0,0.859627 -0.696,1.556377 -1.557,1.556377 h -28.101 c -0.86,0 -1.557,-0.697756 -1.557,-1.556377 V 13.963983 c 0,-0.858622 0.697,-1.556378 1.557,-1.556378 z" />
    <path
       style="opacity:0.48890004;fill:#ffffff;stroke-width:1.00270236"
       inkscape:connector-curvature="0"
       id="path1543"
       inkscape:r_cy="true"
       inkscape:r_cx="true"
       sodipodi:nodetypes="ccccc"
       enable-background="new    "
       d="m 15.650825,29.994272 c -0.04,0.679658 0.771,1.058698 1.127,1.021498 l 1.038,-3.078571 -0.771,-0.588166 z" />
    <path
       style="opacity:0.48890004;fill:#ffffff;stroke-width:1.00270236"
       inkscape:connector-curvature="0"
       id="path1545"
       inkscape:r_cy="true"
       inkscape:r_cx="true"
       sodipodi:nodetypes="ccccc"
       enable-background="new    "
       d="m 46.206825,29.900768 c -0.188,0.949109 -0.887,1.059705 -1.718,1.056688 l -0.814,-3.097674 0.668,-0.407192 z" />
    <path
       style="fill:url(#path1547_1_);stroke-width:1.00270236"
       inkscape:connector-curvature="0"
       id="path1547"
       inkscape:r_cy="true"
       inkscape:r_cx="true"
       sodipodi:nodetypes="ccccc"
       d="m 45.549825,13.946891 c -0.053,-0.584145 -0.379,-1.033564 -1.014,-1.086851 l -0.861,1.150192 0.602,0.637431 z" />
    <path
       style="fill:url(#path1549_1_);stroke-width:1.00270236"
       inkscape:connector-curvature="0"
       id="path1549"
       inkscape:r_cy="true"
       inkscape:r_cx="true"
       sodipodi:nodetypes="ccccc"
       d="m 15.674825,13.910696 c 0.141,-0.518793 0.545,-0.956147 1.114,-0.98832 l 0.762,1.194429 -0.559,0.638437 z" />
    <g
       transform="translate(8.3223397,-7.3428886)"
       id="g5240">
      <path
         id="path5232"
         d="m 19.322,29.424 1.244,0.314 c -0.261,1.021 -0.73,1.8 -1.407,2.336 -0.677,0.537 -1.505,0.805 -2.484,0.805 -1.013,0 -1.837,-0.206 -2.471,-0.618 -0.635,-0.413 -1.118,-1.01 -1.449,-1.792 -0.332,-0.782 -0.497,-1.622 -0.497,-2.52 0,-0.979 0.187,-1.832 0.561,-2.561 0.374,-0.729 0.906,-1.283 1.596,-1.661 0.69,-0.378 1.45,-0.567 2.279,-0.567 0.94,0 1.731,0.239 2.372,0.718 0.641,0.479 1.087,1.152 1.34,2.019 l -1.225,0.289 c -0.218,-0.684 -0.534,-1.182 -0.949,-1.493 -0.415,-0.312 -0.936,-0.469 -1.564,-0.469 -0.722,0 -1.326,0.174 -1.811,0.52 -0.485,0.346 -0.826,0.811 -1.022,1.395 -0.197,0.583 -0.295,1.185 -0.295,1.805 0,0.799 0.116,1.496 0.349,2.093 0.233,0.596 0.595,1.042 1.087,1.336 0.491,0.295 1.023,0.442 1.596,0.442 0.696,0 1.286,-0.2 1.769,-0.603 0.483,-0.401 0.81,-0.997 0.981,-1.788 z"
         inkscape:connector-curvature="0" />
      <path
         id="path5234"
         d="m 24.469,31.687 0.167,1.02 c -0.325,0.068 -0.615,0.103 -0.872,0.103 -0.419,0 -0.744,-0.066 -0.975,-0.199 -0.23,-0.132 -0.393,-0.307 -0.487,-0.522 -0.094,-0.216 -0.141,-0.67 -0.141,-1.362 v -3.916 h -0.846 v -0.897 h 0.846 v -1.687 l 1.147,-0.692 v 2.379 h 1.16 v 0.897 h -1.16 v 3.98 c 0,0.329 0.02,0.541 0.061,0.635 0.041,0.094 0.107,0.169 0.199,0.225 0.092,0.056 0.224,0.083 0.395,0.083 0.128,-0.003 0.297,-0.017 0.506,-0.047 z"
         inkscape:connector-curvature="0" />
      <path
         id="path5236"
         d="m 25.585,32.719 v -6.808 h 1.038 v 1.031 c 0.266,-0.482 0.51,-0.801 0.734,-0.955 0.225,-0.153 0.471,-0.23 0.74,-0.23 0.389,0 0.785,0.124 1.186,0.372 l -0.396,1.07 c -0.282,-0.167 -0.564,-0.25 -0.847,-0.25 -0.252,0 -0.479,0.076 -0.679,0.228 -0.201,0.151 -0.345,0.362 -0.43,0.632 -0.129,0.41 -0.193,0.858 -0.193,1.346 v 3.564 z"
         inkscape:connector-curvature="0" />
      <path
         id="path5238"
         d="m 29.944,32.719 v -9.398 h 1.154 v 9.398 z"
         inkscape:connector-curvature="0" />
    </g>
  </g>
</svg>
