<?xml version="1.0" encoding="UTF-8" standalone="no"?>
<svg
   xmlns:dc="http://purl.org/dc/elements/1.1/"
   xmlns:cc="http://creativecommons.org/ns#"
   xmlns:rdf="http://www.w3.org/1999/02/22-rdf-syntax-ns#"
   xmlns:svg="http://www.w3.org/2000/svg"
   xmlns="http://www.w3.org/2000/svg"
   xmlns:sodipodi="http://sodipodi.sourceforge.net/DTD/sodipodi-0.dtd"
   xmlns:inkscape="http://www.inkscape.org/namespaces/inkscape"
   width="90"
   height="65"
   viewBox="0 0 90 65"
   version="1.1"
   id="svg6"
   sodipodi:docname="gear.svg"
   inkscape:version="0.92.2 (5c3e80d, 2017-08-06)">
  <metadata
     id="metadata12">
    <rdf:RDF>
      <cc:Work
         rdf:about="">
        <dc:format>image/svg+xml</dc:format>
        <dc:type
           rdf:resource="http://purl.org/dc/dcmitype/StillImage" />
        <dc:title></dc:title>
      </cc:Work>
    </rdf:RDF>
  </metadata>
  <defs
     id="defs10" />
  <sodipodi:namedview
     pagecolor="#ffffff"
     bordercolor="#666666"
     borderopacity="1"
     objecttolerance="10"
     gridtolerance="10"
     guidetolerance="10"
     inkscape:pageopacity="0"
     inkscape:pageshadow="2"
     inkscape:window-width="1920"
     inkscape:window-height="1043"
     id="namedview8"
     showgrid="false"
     inkscape:pagecheckerboard="false"
     showborder="false"
     inkscape:zoom="4.9166667"
     inkscape:cx="100.33838"
     inkscape:cy="41.119813"
     inkscape:window-x="1920"
     inkscape:window-y="0"
     inkscape:window-maximized="1"
     inkscape:current-layer="svg6" />
  <rect
     style="opacity:1;fill:#1d83c1;fill-opacity:1;stroke:none;stroke-width:0.5;stroke-linejoin:round;stroke-miterlimit:4;stroke-dasharray:none;stroke-dashoffset:0;stroke-opacity:1"
     id="rect4519"
     width="90"
     height="65"
     x="0"
     y="0" />
  <circle
     style="opacity:1;fill:#e27c3e;fill-opacity:1;stroke:none;stroke-width:0.53044713;stroke-linejoin:round;stroke-miterlimit:4;stroke-dasharray:none;stroke-dashoffset:0;stroke-opacity:1"
     id="path4515"
     cx="45"
     cy="32.5"
     r="26" />
  <path
     d="M 0,17 H 48 V 65 H 0 Z"
     id="path2"
     inkscape:connector-curvature="0"
     style="fill:none" />
  <g
     id="g4963"
     transform="matrix(0.10237121,0,0,0.10237121,27.5,15)"
     style="fill:#e8e6e4;fill-opacity:1">
    <g
       id="g4906"
       style="fill:#e8e6e4;fill-opacity:1">
      <path
         id="path4902"
         d="M 324.704,254.36 H 310.15 v -14.554 c 0,-9.479 -7.711,-17.191 -17.188,-17.191 -9.477,0 -17.187,7.712 -17.187,17.191 V 254.36 H 261.22 c -9.477,0 -17.187,7.71 -17.187,17.186 0,9.478 7.71,17.189 17.187,17.189 h 14.555 v 14.556 c 0,9.477 7.71,17.187 17.187,17.187 9.478,0 17.188,-7.71 17.188,-17.187 v -14.556 h 14.554 c 9.478,0 17.189,-7.711 17.189,-17.189 0,-9.476 -7.711,-17.186 -17.189,-17.186 z"
         inkscape:connector-curvature="0"
         style="fill:#e8e6e4;fill-opacity:1" />
      <path
         id="path4904"
         d="M 225.001,272.888 H 27.188 V 111.809 h 255.551 v 93.217 c 3.244,-0.955 6.674,-1.472 10.224,-1.472 6.127,0 11.899,1.535 16.964,4.23 V 30.478 c 0,-5.006 -4.057,-9.063 -9.063,-9.063 H 9.063 C 4.057,21.415 0,25.473 0,30.478 v 260.537 c 0,5.004 4.057,9.061 9.063,9.061 h 229.818 c -8.135,-6.384 -13.477,-16.167 -13.88,-27.188 z M 264.026,49.892 c 8.251,0 14.941,6.69 14.941,14.94 0,8.251 -6.689,14.942 -14.941,14.942 -8.253,0 -14.941,-6.691 -14.941,-14.942 0,-8.251 6.688,-14.94 14.941,-14.94 z m -42.62,0 c 8.252,0 14.942,6.69 14.942,14.94 0,8.251 -6.689,14.942 -14.942,14.942 -8.251,0 -14.941,-6.691 -14.941,-14.942 0,-8.251 6.69,-14.94 14.941,-14.94 z M 30.959,51.088 h 141.672 v 27.49 H 30.959 Z"
         inkscape:connector-curvature="0"
         style="fill:#e8e6e4;fill-opacity:1" />
    </g>
    <g
       id="g4908"
       style="fill:#e8e6e4;fill-opacity:1" />
    <g
       id="g4910"
       style="fill:#e8e6e4;fill-opacity:1" />
    <g
       id="g4912"
       style="fill:#e8e6e4;fill-opacity:1" />
    <g
       id="g4914"
       style="fill:#e8e6e4;fill-opacity:1" />
    <g
       id="g4916"
       style="fill:#e8e6e4;fill-opacity:1" />
    <g
       id="g4918"
       style="fill:#e8e6e4;fill-opacity:1" />
    <g
       id="g4920"
       style="fill:#e8e6e4;fill-opacity:1" />
    <g
       id="g4922"
       style="fill:#e8e6e4;fill-opacity:1" />
    <g
       id="g4924"
       style="fill:#e8e6e4;fill-opacity:1" />
    <g
       id="g4926"
       style="fill:#e8e6e4;fill-opacity:1" />
    <g
       id="g4928"
       style="fill:#e8e6e4;fill-opacity:1" />
    <g
       id="g4930"
       style="fill:#e8e6e4;fill-opacity:1" />
    <g
       id="g4932"
       style="fill:#e8e6e4;fill-opacity:1" />
    <g
       id="g4934"
       style="fill:#e8e6e4;fill-opacity:1" />
    <g
       id="g4936"
       style="fill:#e8e6e4;fill-opacity:1" />
  </g>
</svg>
